<svg xmlns="http://www.w3.org/2000/svg" width="30" height="30" viewBox="0 0 30 30">
  <metadata><?xpacket begin="﻿" id="W5M0MpCehiHzreSzNTczkc9d"?>
<x:xmpmeta xmlns:x="adobe:ns:meta/" x:xmptk="Adobe XMP Core 5.6-c138 79.159824, 2016/09/14-01:09:01        ">
   <rdf:RDF xmlns:rdf="http://www.w3.org/1999/02/22-rdf-syntax-ns#">
      <rdf:Description rdf:about=""/>
   </rdf:RDF>
</x:xmpmeta>
                                                                                                    
                                                                                                    
                                                                                                    
                                                                                                    
                                                                                                    
                                                                                                    
                                                                                                    
                                                                                                    
                                                                                                    
                                                                                                    
                                                                                                    
                                                                                                    
                                                                                                    
                                                                                                    
                                                                                                    
                                                                                                    
                                                                                                    
                                                                                                    
                                                                                                    
                                                                                                    
                           
<?xpacket end="w"?></metadata>
<defs>
    <style>
      .cls-1 {
        fill: #1c4366;
        fill-rule: evenodd;
      }
    </style>
  </defs>
  <path id="Forma_1" data-name="Forma 1" class="cls-1" d="M273.651,747.471a1.835,1.835,0,1,0,1.806,1.834A1.822,1.822,0,0,0,273.651,747.471Zm0,2.395a0.561,0.561,0,1,1,.552-0.56A0.556,0.556,0,0,1,273.651,749.866Zm-1.858-17.423h-1.4v-1.275h1.4v1.275Zm3.674-3.168h-1.4V728h1.4v1.275Zm-3.008,15.233a1.806,1.806,0,1,0-1.806,1.835A1.823,1.823,0,0,0,272.459,744.508Zm-1.806.56a0.561,0.561,0,1,1,.551-0.56A0.557,0.557,0,0,1,270.653,745.068Zm21.183-10.163-0.189-.246H268.353l-0.189.246a15.34,15.34,0,0,0,5.19,23.029L273.485,758h13.03l0.131-.066a15.141,15.141,0,0,0,6.033-5.519A15.446,15.446,0,0,0,291.836,734.905Zm-22.867,1.029h22.062a14.037,14.037,0,0,1,1.537,2.659,55.762,55.762,0,0,1-12.725,1.334c-1.5,0-2.99-.048-4.441-0.143a1.8,1.8,0,0,0-3.39-.319,43.856,43.856,0,0,1-4.609-.8A14.019,14.019,0,0,1,268.969,735.934Zm5.234,4.3a0.552,0.552,0,1,1-.552-0.561A0.557,0.557,0,0,1,274.2,740.235Zm1.923,15.943a1.364,1.364,0,0,1-1.272.547,0.784,0.784,0,1,1,0-1.21,1.364,1.364,0,0,1,1.272.547c0,0.02,0,.039,0,0.058S276.125,756.159,276.126,756.178Zm-0.5-2.395a1.66,1.66,0,1,1,1.281.605A1.226,1.226,0,0,1,275.624,753.783Zm3.037,2.942a1.362,1.362,0,0,1-1.272-.547c0-.019,0-0.038,0-0.058s0-.038,0-0.058a1.362,1.362,0,0,1,1.272-.547A0.783,0.783,0,1,1,278.661,756.725Zm9.134-.949a5.013,5.013,0,0,0-.852-2.619,4.131,4.131,0,0,1-.7-1.935,2.015,2.015,0,0,1,.588-1.267c1.683-1.784.787-3.416,0.133-4.609l-1.095.621c0.7,1.28,1.051,2.056.051,3.111l-0.013.015a3.236,3.236,0,0,0-.917,2.089,5.092,5.092,0,0,0,.862,2.6c0.688,1.254,1.026,1.989.241,2.947h-0.864c0.613-1.4-.059-2.66-0.621-3.712-0.727-1.364-1.09-2.188-.094-3.284l-0.921-.865c-1.655,1.82-.786,3.448-0.087,4.756,0.685,1.285,1.049,2.1.26,3.105h-2.695a1.48,1.48,0,0,0,.129-0.605,2.042,2.042,0,0,0-1.851-1.813,1.489,1.489,0,0,0,.1-0.524c0-1.054-1.114-1.88-2.536-1.88s-2.535.826-2.535,1.88a1.462,1.462,0,0,0,.08.481,2.24,2.24,0,0,0-2.111,1.605,13.939,13.939,0,0,1-6.085-11.6,14.174,14.174,0,0,1,.694-4.406,44.67,44.67,0,0,0,4.966.875,1.8,1.8,0,0,0,3.354.315c1.5,0.1,3.031.15,4.575,0.15a56.654,56.654,0,0,0,13.186-1.411,14.18,14.18,0,0,1,.717,4.477A13.941,13.941,0,0,1,287.8,755.776Z" transform="translate(-265 -728)"/>
</svg>
