<svg id="Группа_2" data-name="Группа 2" xmlns="http://www.w3.org/2000/svg" width="21.5" height="25.5" viewBox="0 0 21.5 25.5">
  <metadata><?xpacket begin="﻿" id="W5M0MpCehiHzreSzNTczkc9d"?>
<x:xmpmeta xmlns:x="adobe:ns:meta/" x:xmptk="Adobe XMP Core 5.6-c138 79.159824, 2016/09/14-01:09:01        ">
   <rdf:RDF xmlns:rdf="http://www.w3.org/1999/02/22-rdf-syntax-ns#">
      <rdf:Description rdf:about=""/>
   </rdf:RDF>
</x:xmpmeta>
                                                                                                    
                                                                                                    
                                                                                                    
                                                                                                    
                                                                                                    
                                                                                                    
                                                                                                    
                                                                                                    
                                                                                                    
                                                                                                    
                                                                                                    
                                                                                                    
                                                                                                    
                                                                                                    
                                                                                                    
                                                                                                    
                                                                                                    
                                                                                                    
                                                                                                    
                                                                                                    
                           
<?xpacket end="w"?></metadata>
<defs>
    <style>
      .cls-1 {
        fill: #feb326;
        fill-rule: evenodd;
      }

      .cls-2 {
        fill: #3f6295;
        stroke: #fff;
        stroke-width: 1px;
      }
    </style>
  </defs>
  <path id="Forma_1" data-name="Forma 1" class="cls-1" d="M875.17,62.881h-2.2a6.966,6.966,0,0,0-13.93,0h-2.2a0.839,0.839,0,0,0-.821.971l1.944,11.453a0.835,0.835,0,0,0,.82.694h14.449a0.829,0.829,0,0,0,.821-0.694l1.948-11.453A0.848,0.848,0,0,0,875.17,62.881ZM866,57.665a5.3,5.3,0,0,1,5.3,5.212H860.7A5.3,5.3,0,0,1,866,57.665Zm6.522,16.669H859.48l-1.666-9.788h16.368Zm-10-6.143h6.946a0.833,0.833,0,1,0,0-1.665h-6.946A0.833,0.833,0,1,0,862.523,68.192Zm0,4.163h6.946a0.833,0.833,0,1,0,0-1.665h-6.946A0.833,0.833,0,1,0,862.523,72.355Z" transform="translate(-856 -50.5)"/>
  <rect id="круг_на_корзине" data-name="круг на корзине" class="cls-2" x="11" y="0.5" width="10" height="10" rx="5" ry="5"/>
</svg>
