<svg xmlns="http://www.w3.org/2000/svg" width="20" height="20" viewBox="0 0 20 20">
  <metadata><?xpacket begin="﻿" id="W5M0MpCehiHzreSzNTczkc9d"?>
<x:xmpmeta xmlns:x="adobe:ns:meta/" x:xmptk="Adobe XMP Core 5.6-c138 79.159824, 2016/09/14-01:09:01        ">
   <rdf:RDF xmlns:rdf="http://www.w3.org/1999/02/22-rdf-syntax-ns#">
      <rdf:Description rdf:about=""/>
   </rdf:RDF>
</x:xmpmeta>
                                                                                                    
                                                                                                    
                                                                                                    
                                                                                                    
                                                                                                    
                                                                                                    
                                                                                                    
                                                                                                    
                                                                                                    
                                                                                                    
                                                                                                    
                                                                                                    
                                                                                                    
                                                                                                    
                                                                                                    
                                                                                                    
                                                                                                    
                                                                                                    
                                                                                                    
                                                                                                    
                           
<?xpacket end="w"?></metadata>
<defs>
    <style>
      .cls-1 {
        fill: #ffb400;
        fill-rule: evenodd;
      }
    </style>
  </defs>
  <path id="Forma_1" data-name="Forma 1" class="cls-1" d="M874.17,60.882h-2.2a6.966,6.966,0,0,0-13.93,0h-2.2a0.839,0.839,0,0,0-.821.971l1.944,11.453a0.835,0.835,0,0,0,.821.694h14.448a0.829,0.829,0,0,0,.821-0.694l1.948-11.453A0.848,0.848,0,0,0,874.17,60.882ZM865,55.665a5.3,5.3,0,0,1,5.3,5.212H859.7A5.3,5.3,0,0,1,865,55.665Zm6.522,16.669H858.48l-1.666-9.788h16.368Zm-10-6.143h6.946a0.833,0.833,0,1,0,0-1.665h-6.946A0.833,0.833,0,1,0,861.523,66.192Zm0,4.163h6.946a0.833,0.833,0,1,0,0-1.665h-6.946A0.833,0.833,0,1,0,861.523,70.355Z" transform="translate(-855 -54)"/>
</svg>
