<svg xmlns="http://www.w3.org/2000/svg" width="30" height="27" viewBox="0 0 30 27">
  <metadata><?xpacket begin="﻿" id="W5M0MpCehiHzreSzNTczkc9d"?>
<x:xmpmeta xmlns:x="adobe:ns:meta/" x:xmptk="Adobe XMP Core 5.6-c138 79.159824, 2016/09/14-01:09:01        ">
   <rdf:RDF xmlns:rdf="http://www.w3.org/1999/02/22-rdf-syntax-ns#">
      <rdf:Description rdf:about=""/>
   </rdf:RDF>
</x:xmpmeta>
                                                                                                    
                                                                                                    
                                                                                                    
                                                                                                    
                                                                                                    
                                                                                                    
                                                                                                    
                                                                                                    
                                                                                                    
                                                                                                    
                                                                                                    
                                                                                                    
                                                                                                    
                                                                                                    
                                                                                                    
                                                                                                    
                                                                                                    
                                                                                                    
                                                                                                    
                                                                                                    
                           
<?xpacket end="w"?></metadata>
<defs>
    <style>
      .cls-1 {
        fill: #1c4366;
        fill-rule: evenodd;
      }
    </style>
  </defs>
  <path class="cls-1" d="M724.185,745.638a0.628,0.628,0,0,0,.441.18h8.749a0.62,0.62,0,0,0,.625-0.613v-0.612h4.375a0.62,0.62,0,0,0,.625-0.614v-3.685a0.608,0.608,0,0,0-.183-0.434,0.628,0.628,0,0,0-.442-0.18H734v-0.612a0.608,0.608,0,0,0-.183-0.434,0.628,0.628,0,0,0-.442-0.179h-3.749v-1.227H731.5a0.614,0.614,0,1,0,0-1.228h-5a0.614,0.614,0,1,0,0,1.228h1.875v1.227h-3.75a0.618,0.618,0,0,0-.624.613v0.612h-5v0a0.625,0.625,0,0,0-1.25,0V739.7a9.385,9.385,0,0,0-6,2.677,9.09,9.09,0,0,0,0,13.022,9.39,9.39,0,0,0,6,2.677v0.019a0.625,0.625,0,0,0,1.25,0h10a0.625,0.625,0,0,0,1.248.045A4.327,4.327,0,0,1,734,762.386a0.62,0.62,0,0,0,.625.614h3.753a0.62,0.62,0,0,0,.625-0.614,9.061,9.061,0,0,0-2.747-6.51,9.386,9.386,0,0,0-6.006-2.678v-0.019a0.625,0.625,0,0,0-1.25,0H719a0.625,0.625,0,0,0-1.248-.045,4.285,4.285,0,0,1,0-8.5,0.625,0.625,0,0,0,1.248-.038h5v0.612A0.608,0.608,0,0,0,724.185,745.638ZM734,740.907h3.75v2.458H734v-2.458Zm-8.749-1.225h7.5v4.909h-7.5v-4.909Zm5,14.746a8.07,8.07,0,0,1,7.478,7.345h-2.514a5.585,5.585,0,0,0-4.964-4.876v-2.469ZM719,754.406h10v2.458H719v-2.458Zm-1.25-11.012a5.512,5.512,0,0,0,0,10.977v2.469a7.971,7.971,0,0,1,0-15.915v2.469h0Zm1.25-.029h0v-2.458h5v2.458h-5Z" transform="translate(-709 -736)"/>
</svg>
