<svg xmlns="http://www.w3.org/2000/svg" width="31" height="24" viewBox="0 0 31 24">
  <metadata><?xpacket begin="﻿" id="W5M0MpCehiHzreSzNTczkc9d"?>
<x:xmpmeta xmlns:x="adobe:ns:meta/" x:xmptk="Adobe XMP Core 5.6-c138 79.159824, 2016/09/14-01:09:01        ">
   <rdf:RDF xmlns:rdf="http://www.w3.org/1999/02/22-rdf-syntax-ns#">
      <rdf:Description rdf:about=""/>
   </rdf:RDF>
</x:xmpmeta>
                                                                                                    
                                                                                                    
                                                                                                    
                                                                                                    
                                                                                                    
                                                                                                    
                                                                                                    
                                                                                                    
                                                                                                    
                                                                                                    
                                                                                                    
                                                                                                    
                                                                                                    
                                                                                                    
                                                                                                    
                                                                                                    
                                                                                                    
                                                                                                    
                                                                                                    
                                                                                                    
                           
<?xpacket end="w"?></metadata>
<defs>
    <style>
      .cls-1 {
        fill: #fff;
        fill-rule: evenodd;
      }
    </style>
  </defs>
  <path class="cls-1" d="M107.959,746.863a14.352,14.352,0,0,0-4.8-6.219,14.084,14.084,0,0,0-7.382-2.727l-5.508-2.744-0.033-.015A1.941,1.941,0,0,0,89.477,735a1.847,1.847,0,0,0-1.792,1.972,4.387,4.387,0,0,0,.726,2.066c0.049,0.091.1,0.182,0.149,0.276a14.454,14.454,0,0,0-5.7,5.061L79.093,742.1a0.523,0.523,0,0,0-.074-0.038,1.535,1.535,0,0,0-.6-0.124A1.455,1.455,0,0,0,77,743.486c0,1.028,1.168,2.789,1.736,3.585-0.569.795-1.736,2.556-1.736,3.584a1.456,1.456,0,0,0,1.423,1.546,1.535,1.535,0,0,0,.6-0.124,0.523,0.523,0,0,0,.074-0.038l3.764-2.273a14.212,14.212,0,0,0,5.63,5.025l-0.113.216a4.416,4.416,0,0,0-.689,2.021A1.847,1.847,0,0,0,89.477,759h0a1.939,1.939,0,0,0,.756-0.158l0.035-.016,5.136-2.579a14.25,14.25,0,0,0,12.555-8.969A0.552,0.552,0,0,0,107.959,746.863Zm-7.836,7.1a10.168,10.168,0,0,1-2.529-7.019,11.677,11.677,0,0,1,.575-3.673,0.564,0.564,0,0,0-.368-0.713,0.577,0.577,0,0,0-.724.363,12.785,12.785,0,0,0-.631,4.023,11.514,11.514,0,0,0,2.545,7.471,12.87,12.87,0,0,1-3.756.7,0.572,0.572,0,0,0-.24.062l-5.229,2.625a0.781,0.781,0,0,1-.289.061h0a0.737,0.737,0,0,1-.644-0.841,3.6,3.6,0,0,1,.561-1.5c0.118-.224.251-0.479,0.384-0.755a0.558,0.558,0,0,0,.02-0.437,0.57,0.57,0,0,0-.3-0.321,13.092,13.092,0,0,1-5.953-5.31,0.574,0.574,0,0,0-.356-0.263,0.6,0.6,0,0,0-.14-0.017,0.58,0.58,0,0,0-.3.083l-4.211,2.544a0.341,0.341,0,0,1-.112.021,0.351,0.351,0,0,1-.275-0.415,9.436,9.436,0,0,1,1.757-3.248,0.559,0.559,0,0,0,0-.673,9.436,9.436,0,0,1-1.757-3.248,0.35,0.35,0,0,1,.275-0.415,0.366,0.366,0,0,1,.112.02l4.211,2.544a0.578,0.578,0,0,0,.8-0.2,13.273,13.273,0,0,1,6.03-5.345,0.568,0.568,0,0,0,.306-0.322,0.557,0.557,0,0,0-.022-0.44c-0.149-.3-0.3-0.582-0.432-0.827a3.558,3.558,0,0,1-.591-1.534,0.736,0.736,0,0,1,.644-0.84,0.765,0.765,0,0,1,.29.061l5.594,2.786a0.575,0.575,0,0,0,.222.06,12.92,12.92,0,0,1,3.249.628,9.072,9.072,0,0,0-.771,1.1,0.561,0.561,0,0,0,.2.775,0.581,0.581,0,0,0,.786-0.2,7.879,7.879,0,0,1,.915-1.239,13.023,13.023,0,0,1,2.5,1.45,13.215,13.215,0,0,1,4.338,5.521A13.172,13.172,0,0,1,100.123,753.968Zm1.563-10.288a1.684,1.684,0,1,0,1.708,1.683A1.7,1.7,0,0,0,101.686,743.68Zm0,2.236a0.553,0.553,0,1,1,.56-0.553A0.557,0.557,0,0,1,101.686,745.916Z" transform="translate(-77 -735)"/>
</svg>
