<svg xmlns="http://www.w3.org/2000/svg" width="25" height="31" viewBox="0 0 25 31">
  <metadata><?xpacket begin="﻿" id="W5M0MpCehiHzreSzNTczkc9d"?>
<x:xmpmeta xmlns:x="adobe:ns:meta/" x:xmptk="Adobe XMP Core 5.6-c138 79.159824, 2016/09/14-01:09:01        ">
   <rdf:RDF xmlns:rdf="http://www.w3.org/1999/02/22-rdf-syntax-ns#">
      <rdf:Description rdf:about=""/>
   </rdf:RDF>
</x:xmpmeta>
                                                                                                    
                                                                                                    
                                                                                                    
                                                                                                    
                                                                                                    
                                                                                                    
                                                                                                    
                                                                                                    
                                                                                                    
                                                                                                    
                                                                                                    
                                                                                                    
                                                                                                    
                                                                                                    
                                                                                                    
                                                                                                    
                                                                                                    
                                                                                                    
                                                                                                    
                                                                                                    
                           
<?xpacket end="w"?></metadata>
<defs>
    <style>
      .cls-1 {
        fill: #1c4366;
        fill-rule: evenodd;
      }
    </style>
  </defs>
  <path class="cls-1" d="M521.459,742.965a0.545,0.545,0,0,0,.541-0.549V731.549a0.545,0.545,0,0,0-.541-0.549H497.541a0.545,0.545,0,0,0-.541.549v29.9a0.545,0.545,0,0,0,.541.55h23.918a0.545,0.545,0,0,0,.541-0.55V744.211a0.541,0.541,0,1,0-1.082,0V760.9H498.082V739.265h22.836v3.151A0.545,0.545,0,0,0,521.459,742.965Zm-23.377-4.8v-1.589h18.053a0.55,0.55,0,0,0,0-1.1H498.082V732.1h22.836v3.378h-2.98a0.55,0.55,0,0,0,0,1.1h2.98v1.589H498.082Zm20.853,7.785a5.93,5.93,0,0,1-2.92-.683,7.646,7.646,0,0,0-6.741,0,6.579,6.579,0,0,1-5.838,0,6.92,6.92,0,0,0-3.371-.783,0.547,0.547,0,0,0-.541.55v5.809a0.541,0.541,0,1,0,1.082,0V745.6a5.881,5.881,0,0,1,2.379.667,7.646,7.646,0,0,0,6.741,0,6.579,6.579,0,0,1,5.838,0,6.846,6.846,0,0,0,2.83.768v10.707a0.589,0.589,0,0,1-.584.593H501.19a0.589,0.589,0,0,1-.584-0.593v-5.066a0.541,0.541,0,1,0-1.082,0v5.066a1.682,1.682,0,0,0,1.666,1.693h16.62a1.682,1.682,0,0,0,1.666-1.693V746.5A0.545,0.545,0,0,0,518.935,745.95Zm-2.8,4.914a0.55,0.55,0,1,1-.541.55A0.545,0.545,0,0,1,516.135,750.864Zm-1.71-2.549a0.55,0.55,0,1,1-.541.55A0.545,0.545,0,0,1,514.425,748.315Zm-9.6,5.57a0.55,0.55,0,1,1-.541.549A0.545,0.545,0,0,1,504.827,753.885Zm-2.251.733a0.55,0.55,0,1,1-.541.549A0.545,0.545,0,0,1,502.576,754.618Zm1.34,1.465a0.55,0.55,0,1,1-.541.55A0.546,0.546,0,0,1,503.916,756.083Z" transform="translate(-497 -731)"/>
</svg>
