<svg xmlns="http://www.w3.org/2000/svg" width="30" height="28" viewBox="0 0 30 28">
  <metadata><?xpacket begin="﻿" id="W5M0MpCehiHzreSzNTczkc9d"?>
<x:xmpmeta xmlns:x="adobe:ns:meta/" x:xmptk="Adobe XMP Core 5.6-c138 79.159824, 2016/09/14-01:09:01        ">
   <rdf:RDF xmlns:rdf="http://www.w3.org/1999/02/22-rdf-syntax-ns#">
      <rdf:Description rdf:about=""/>
   </rdf:RDF>
</x:xmpmeta>
                                                                                                    
                                                                                                    
                                                                                                    
                                                                                                    
                                                                                                    
                                                                                                    
                                                                                                    
                                                                                                    
                                                                                                    
                                                                                                    
                                                                                                    
                                                                                                    
                                                                                                    
                                                                                                    
                                                                                                    
                                                                                                    
                                                                                                    
                                                                                                    
                                                                                                    
                                                                                                    
                           
<?xpacket end="w"?></metadata>
<defs>
    <style>
      .cls-1 {
        fill: #1c4366;
        fill-rule: evenodd;
      }
    </style>
  </defs>
  <path class="cls-1" d="M1001.12,738.075a4.828,4.828,0,0,1,2-1.319l-0.3-.922a6.209,6.209,0,0,0-3.083,2.4,11.075,11.075,0,0,0-1.124,2V735h-0.968v5.237a11.087,11.087,0,0,0-1.1-1.958,6.27,6.27,0,0,0-3.106-2.445l-0.3.921a4.864,4.864,0,0,1,2,1.32h-6.268a4.847,4.847,0,0,1,2-1.319l-0.3-.923a6.246,6.246,0,0,0-3.079,2.4,11.075,11.075,0,0,0-1.124,2V735h-0.968v5.237a11.087,11.087,0,0,0-1.1-1.958,6.268,6.268,0,0,0-3.107-2.445l-0.3.922a4.851,4.851,0,0,1,2,1.319H977V763h4.677v-0.971h-3.709v-4.518a5.62,5.62,0,0,1,2.223.592,7.316,7.316,0,0,0,6.2,0,6.349,6.349,0,0,1,5.414,0,7.311,7.311,0,0,0,6.2,0,6.361,6.361,0,0,1,5.417,0,6.458,6.458,0,0,0,2.61.676v3.25H982.968V763H1007V738.075h-5.88Zm4.91,19.732a5.641,5.641,0,0,1-2.22-.592,7.318,7.318,0,0,0-6.2,0,6.352,6.352,0,0,1-5.413,0,7.314,7.314,0,0,0-6.2,0,6.347,6.347,0,0,1-5.413,0,6.529,6.529,0,0,0-2.616-.677v-5.5a5.639,5.639,0,0,1,2.223.591,7.307,7.307,0,0,0,6.2,0,6.354,6.354,0,0,1,5.414,0,7.311,7.311,0,0,0,6.2,0,6.365,6.365,0,0,1,5.417,0,6.44,6.44,0,0,0,2.61.677v5.5Zm0-16.819h-4.68v0.971h4.68V745.2H981.355v0.971h24.675v5.166a5.641,5.641,0,0,1-2.22-.592,7.316,7.316,0,0,0-6.2,0,6.354,6.354,0,0,1-5.414,0,7.314,7.314,0,0,0-6.2,0,6.347,6.347,0,0,1-5.413,0,6.513,6.513,0,0,0-2.616-.677v-3.9h2.1V745.2h-2.1v-3.237h4.677v-0.971h-4.677v-1.942h5.675a12.658,12.658,0,0,1,1.629,3.885h-1.659V743.9h4.516v-0.971H986.47A12.663,12.663,0,0,1,988.129,739v0.048H995.9a12.658,12.658,0,0,1,1.629,3.885h-1.659V743.9h4.519v-0.971h-1.662A12.611,12.611,0,0,1,1000.39,739v0.048h5.64v1.942Zm-24.675,7.769h1.613v0.971h-1.613v-0.971Zm1.613-1.295h1.613v0.971h-1.613v-0.971Zm4.516,0H989.1v0.971h-1.613v-0.971Zm6.129,1.295h1.613v0.971h-1.613v-0.971Zm8.387-1.295h1.61v0.971H1002v-0.971Zm0,7.122h1.61v0.971H1002v-0.971Zm-7.1,0h1.613v0.971H994.9v-0.971Zm-1.29-1.295h1.613v0.971h-1.613v-0.971Zm-6.452,0h1.613v0.971h-1.613v-0.971Zm-7.1,1.295h1.613v0.971h-1.613v-0.971Zm3.226,0H984.9v0.971H983.29v-0.971Zm-3.871,5.179h1.613v0.971h-1.613v-0.971Zm7.742-1.3h1.613v0.971h-1.613v-0.971Zm2.581,1.3h1.613v0.971h-1.613v-0.971Zm13.548,0h1.61v0.971h-1.61v-0.971Zm-5.161,0h1.613v0.971h-1.613v-0.971ZM989.1,740.988h1.29v0.971H989.1v-0.971Zm0.967,1.295h1.291v0.971h-1.291v-0.971Zm3.871-1.295h1.291v0.971h-1.291v-0.971Zm-13.548,1.943h1.29V743.9h-1.29v-0.971Zm21.933,0h1.29V743.9h-1.29v-0.971Z" transform="translate(-977 -735)"/>
</svg>
