<svg xmlns="http://www.w3.org/2000/svg" width="43" height="43" viewBox="0 0 43 43">
  <metadata><?xpacket begin="﻿" id="W5M0MpCehiHzreSzNTczkc9d"?>
<x:xmpmeta xmlns:x="adobe:ns:meta/" x:xmptk="Adobe XMP Core 5.6-c138 79.159824, 2016/09/14-01:09:01        ">
   <rdf:RDF xmlns:rdf="http://www.w3.org/1999/02/22-rdf-syntax-ns#">
      <rdf:Description rdf:about=""/>
   </rdf:RDF>
</x:xmpmeta>
                                                                                                    
                                                                                                    
                                                                                                    
                                                                                                    
                                                                                                    
                                                                                                    
                                                                                                    
                                                                                                    
                                                                                                    
                                                                                                    
                                                                                                    
                                                                                                    
                                                                                                    
                                                                                                    
                                                                                                    
                                                                                                    
                                                                                                    
                                                                                                    
                                                                                                    
                                                                                                    
                           
<?xpacket end="w"?></metadata>
<defs>
    <style>
      .cls-1 {
        fill: #226298;
        fill-rule: evenodd;
      }
    </style>
  </defs>
  <path id="Forma_1" data-name="Forma 1" class="cls-1" d="M1062.09,2339.57h-1.1v-7.41a3.054,3.054,0,0,0-3.02-3.1h-0.82v-4.95a2.976,2.976,0,0,0-2.84-3.11h-0.18l-31.3,8.05a0.1,0.1,0,0,1-.03.01,3.074,3.074,0,0,0-2.8,3.1v28.73a3.063,3.063,0,0,0,3.02,3.11h34.95a3.082,3.082,0,0,0,3.11-3.11v-7.6h1.01a0.856,0.856,0,0,0,.91-0.91v-11.89A0.921,0.921,0,0,0,1062.09,2339.57Zm-7.6-16.83a1.357,1.357,0,0,1,.91,1.37v4.94h-25.25Zm4.76,38.15a1.329,1.329,0,0,1-1.28,1.37h-34.95a1.329,1.329,0,0,1-1.28-1.37v-28.73a1.329,1.329,0,0,1,1.28-1.37h34.86a1.336,1.336,0,0,1,1.28,1.37v7.41h-9.06a6.86,6.86,0,0,0,0,13.72h9.15v7.6Zm1.92-9.33H1050.1a5.03,5.03,0,0,1,0-10.06h11.07v10.06Zm-12.08-4.94a0.912,0.912,0,0,0,.91.91h0.83a0.915,0.915,0,0,0,0-1.83h-0.82A0.871,0.871,0,0,0,1049.09,2346.62Z" transform="translate(-1020 -2321)"/>
</svg>
