<svg xmlns="http://www.w3.org/2000/svg" width="49" height="48.97" viewBox="0 0 49 48.97">
  <metadata><?xpacket begin="﻿" id="W5M0MpCehiHzreSzNTczkc9d"?>
<x:xmpmeta xmlns:x="adobe:ns:meta/" x:xmptk="Adobe XMP Core 5.6-c138 79.159824, 2016/09/14-01:09:01        ">
   <rdf:RDF xmlns:rdf="http://www.w3.org/1999/02/22-rdf-syntax-ns#">
      <rdf:Description rdf:about=""/>
   </rdf:RDF>
</x:xmpmeta>
                                                                                                    
                                                                                                    
                                                                                                    
                                                                                                    
                                                                                                    
                                                                                                    
                                                                                                    
                                                                                                    
                                                                                                    
                                                                                                    
                                                                                                    
                                                                                                    
                                                                                                    
                                                                                                    
                                                                                                    
                                                                                                    
                                                                                                    
                                                                                                    
                                                                                                    
                                                                                                    
                           
<?xpacket end="w"?></metadata>
<defs>
    <style>
      .cls-1 {
        fill: #226298;
        fill-rule: evenodd;
      }
    </style>
  </defs>
  <path id="Forma_1" data-name="Forma 1" class="cls-1" d="M629.523,2361.54l-2.482-10.41H624.9l2.482,10.41h2.142Zm7.936-10.41h2.082v10.41h-2.082v-10.41Zm14.642,0h-2.152l-2.482,10.41h2.142Zm9.858-14.45h-6.095l-7.156-10.17a4.013,4.013,0,1,0-1.7,1.22l6.3,8.95H623.678l6.295-8.96a4,4,0,1,0-1.681-1.23l-7.156,10.19h-6.095a0.982,0.982,0,0,0-1.041,1.04v6.9a4.1,4.1,0,0,0,.05.69l6.936,22.96a1.257,1.257,0,0,0,1.041.73h32.946a1.244,1.244,0,0,0,1.041-.73L663,2345.13v-7.41A0.982,0.982,0,0,0,661.959,2336.68Zm-14.942-11.28a1.995,1.995,0,1,1,0-2.82A1.994,1.994,0,0,1,647.017,2325.4Zm-17-2.82a1.995,1.995,0,1,1,0,2.82A1.994,1.994,0,0,1,630.013,2322.58Zm24.13,44.33H622.867l-6.465-21.06h44.1Zm6.765-23.15H616.082v-5h44.826v5Z" transform="translate(-614 -2320.03)"/>
</svg>
