<svg xmlns="http://www.w3.org/2000/svg" width="44" height="62" viewBox="0 0 44 62">
  <metadata><?xpacket begin="﻿" id="W5M0MpCehiHzreSzNTczkc9d"?>
<x:xmpmeta xmlns:x="adobe:ns:meta/" x:xmptk="Adobe XMP Core 5.6-c138 79.159824, 2016/09/14-01:09:01        ">
   <rdf:RDF xmlns:rdf="http://www.w3.org/1999/02/22-rdf-syntax-ns#">
      <rdf:Description rdf:about=""/>
   </rdf:RDF>
</x:xmpmeta>
                                                                                                    
                                                                                                    
                                                                                                    
                                                                                                    
                                                                                                    
                                                                                                    
                                                                                                    
                                                                                                    
                                                                                                    
                                                                                                    
                                                                                                    
                                                                                                    
                                                                                                    
                                                                                                    
                                                                                                    
                                                                                                    
                                                                                                    
                                                                                                    
                                                                                                    
                                                                                                    
                           
<?xpacket end="w"?></metadata>
<defs>
    <style>
      .cls-1 {
        fill: #226298;
        fill-rule: evenodd;
      }
    </style>
  </defs>
  <path id="Forma_1" data-name="Forma 1" class="cls-1" d="M239.007,2329.38l7.414,1.74-0.428,1.88-7.413-1.74ZM232.36,2313h-1.9v7.75h1.9V2313Zm11.573,6.48-1.194-1.51-5.911,4.88,1.194,1.5Zm-19.584,11.72-0.428-1.88-7.414,1.74,0.428,1.88ZM259,2346.9v11.63A16.312,16.312,0,0,1,242.819,2375c-6.09,0-12.181-2.91-16.559-10.85-6.081-11.43-14.082-18.99-10.27-22.87,2.667-2.71,6.856,0,10.658,3.48v-17.24a4.757,4.757,0,1,1,9.513,0v9.69a4.619,4.619,0,0,1,2.856-.97,4.7,4.7,0,0,1,4.379,3.1,5.09,5.09,0,0,1,3.234-1.17,4.751,4.751,0,0,1,4.757,4.84,4.617,4.617,0,0,1,2.856-.97A4.78,4.78,0,0,1,259,2346.9Zm-1.9,0a2.857,2.857,0,1,0-5.712,0v0.97h-1.9v-4.84a2.856,2.856,0,1,0-5.712,0v2.91h-1.9v-4.84a2.857,2.857,0,1,0-5.712,0v6.77h-1.9v-20.35a2.857,2.857,0,1,0-5.713,0v21.89c-4-4.26-9.135-8.91-11.225-6.77-1.9,2.12,3.423,7.94,10.658,20.72,3.423,5.62,7.613,9.68,14.848,9.68,7.8,0,14.27-6.97,14.27-14.52V2346.9h0Zm-30.879-24.02-5.911-4.88-1.195,1.51,5.912,4.87Z" transform="translate(-215 -2313)"/>
</svg>
