<svg xmlns="http://www.w3.org/2000/svg" width="35" height="35" viewBox="0 0 35 35">
  <metadata><?xpacket begin="﻿" id="W5M0MpCehiHzreSzNTczkc9d"?>
<x:xmpmeta xmlns:x="adobe:ns:meta/" x:xmptk="Adobe XMP Core 5.6-c138 79.159824, 2016/09/14-01:09:01        ">
   <rdf:RDF xmlns:rdf="http://www.w3.org/1999/02/22-rdf-syntax-ns#">
      <rdf:Description rdf:about=""/>
   </rdf:RDF>
</x:xmpmeta>
                                                                                                    
                                                                                                    
                                                                                                    
                                                                                                    
                                                                                                    
                                                                                                    
                                                                                                    
                                                                                                    
                                                                                                    
                                                                                                    
                                                                                                    
                                                                                                    
                                                                                                    
                                                                                                    
                                                                                                    
                                                                                                    
                                                                                                    
                                                                                                    
                                                                                                    
                                                                                                    
                           
<?xpacket end="w"?></metadata>
<defs>
    <style>
      .cls-1 {
        fill-rule: evenodd;
      }
    </style>
  </defs>
  <path class="cls-1" d="M572.5,2705a17.5,17.5,0,1,0,17.5,17.5A17.519,17.519,0,0,0,572.5,2705Zm0,33.72a16.22,16.22,0,1,1,16.221-16.22A16.241,16.241,0,0,1,572.5,2738.72Zm0-30.72a14.5,14.5,0,1,0,14.5,14.5A14.516,14.516,0,0,0,572.5,2708Zm0.639,27.71v-2.1a0.64,0.64,0,1,0-1.279,0v2.1a13.252,13.252,0,0,1-12.571-12.57h2.1a0.64,0.64,0,0,0,0-1.28h-2.1a13.252,13.252,0,0,1,12.571-12.57v2.1a0.64,0.64,0,1,0,1.279,0v-2.1a13.242,13.242,0,0,1,12.57,12.57h-2.1a0.64,0.64,0,0,0,0,1.28h2.1A13.242,13.242,0,0,1,573.139,2735.71Zm2.974-13.85h-2.974v-5.15a0.64,0.64,0,1,0-1.279,0v5.79a0.642,0.642,0,0,0,.64.64h3.613A0.64,0.64,0,0,0,576.113,2721.86Zm6.006,5.55a0.64,0.64,0,1,1,0,1.28A0.64,0.64,0,0,1,582.119,2727.41Zm0-11.1a0.64,0.64,0,1,1-.639.64A0.636,0.636,0,0,1,582.119,2716.31Zm-4.065-4.07a0.64,0.64,0,1,1-.64.64A0.642,0.642,0,0,1,578.054,2712.24Zm-11.109,0a0.64,0.64,0,1,1-.639.64A0.642,0.642,0,0,1,566.945,2712.24Zm-4.065,4.07a0.64,0.64,0,0,1,0,1.28A0.64,0.64,0,0,1,562.88,2716.31Zm0,11.1a0.64,0.64,0,1,1-.64.64A0.642,0.642,0,0,1,562.88,2727.41Zm4.065,4.07a0.64,0.64,0,1,1-.639.64A0.642,0.642,0,0,1,566.945,2731.48Zm11.109,0a0.64,0.64,0,1,1-.64.64A0.642,0.642,0,0,1,578.054,2731.48Z" transform="translate(-555 -2705)"/>
</svg>
