<svg xmlns="http://www.w3.org/2000/svg" width="31" height="31" viewBox="0 0 31 31">
  <metadata><?xpacket begin="﻿" id="W5M0MpCehiHzreSzNTczkc9d"?>
<x:xmpmeta xmlns:x="adobe:ns:meta/" x:xmptk="Adobe XMP Core 5.6-c138 79.159824, 2016/09/14-01:09:01        ">
   <rdf:RDF xmlns:rdf="http://www.w3.org/1999/02/22-rdf-syntax-ns#">
      <rdf:Description rdf:about=""/>
   </rdf:RDF>
</x:xmpmeta>
                                                                                                    
                                                                                                    
                                                                                                    
                                                                                                    
                                                                                                    
                                                                                                    
                                                                                                    
                                                                                                    
                                                                                                    
                                                                                                    
                                                                                                    
                                                                                                    
                                                                                                    
                                                                                                    
                                                                                                    
                                                                                                    
                                                                                                    
                                                                                                    
                                                                                                    
                                                                                                    
                           
<?xpacket end="w"?></metadata>
<defs>
    <style>
      .cls-1 {
        fill-rule: evenodd;
      }
    </style>
  </defs>
  <path class="cls-1" d="M576.111,2848.88a0.475,0.475,0,0,0-.4-0.33l-2.021-.3-0.9-1.83a0.5,0.5,0,0,0-.887,0l-0.9,1.83-2.022.3a0.475,0.475,0,0,0-.4.33,0.5,0.5,0,0,0,.125.51l1.463,1.43-0.345,2.01a0.492,0.492,0,0,0,.2.48,0.457,0.457,0,0,0,.291.1,0.473,0.473,0,0,0,.23-0.06l1.808-.95,1.808,0.95a0.491,0.491,0,0,0,.521-0.04,0.483,0.483,0,0,0,.2-0.48l-0.345-2.01,1.463-1.43A0.5,0.5,0,0,0,576.111,2848.88Zm-2.465,1.41a0.5,0.5,0,0,0-.142.44l0.22,1.28-1.151-.61a0.556,0.556,0,0,0-.461,0l-1.151.61,0.22-1.28a0.493,0.493,0,0,0-.142-0.44l-0.931-.91,1.287-.19a0.477,0.477,0,0,0,.372-0.27l0.576-1.16,0.575,1.16a0.478,0.478,0,0,0,.373.27l1.286,0.19Zm2.465-11.96a0.5,0.5,0,0,0-.4-0.34l-2.021-.29-0.9-1.83a0.491,0.491,0,0,0-.887,0l-0.9,1.83-2.022.29a0.5,0.5,0,0,0-.274.85l1.463,1.42-0.345,2.02a0.492,0.492,0,0,0,.2.48,0.512,0.512,0,0,0,.291.09,0.463,0.463,0,0,0,.23-0.05l1.808-.95,1.808,0.95a0.5,0.5,0,0,0,.718-0.52l-0.345-2.02,1.463-1.42A0.5,0.5,0,0,0,576.111,2838.33Zm-2.465,1.41a0.477,0.477,0,0,0-.142.43l0.22,1.29-1.151-.61a0.473,0.473,0,0,0-.461,0l-1.151.61,0.22-1.29a0.474,0.474,0,0,0-.142-0.43l-0.931-.91,1.287-.19a0.477,0.477,0,0,0,.372-0.27l0.576-1.17,0.575,1.17a0.478,0.478,0,0,0,.373.27l1.286,0.19Zm-4.85,3.87a0.5,0.5,0,0,0-.4-0.34l-2.022-.29-0.9-1.84a0.5,0.5,0,0,0-.887,0l-0.9,1.84-2.022.29a0.5,0.5,0,0,0-.4.34,0.483,0.483,0,0,0,.125.5l1.463,1.43-0.345,2.01a0.5,0.5,0,0,0,.2.49,0.49,0.49,0,0,0,.521.03l1.808-.95,1.808,0.95a0.473,0.473,0,0,0,.23.06,0.512,0.512,0,0,0,.291-0.09,0.5,0.5,0,0,0,.2-0.49l-0.345-2.01,1.463-1.43A0.481,0.481,0,0,0,568.8,2843.61Zm-2.465,1.4a0.508,0.508,0,0,0-.142.44l0.22,1.28-1.151-.6a0.471,0.471,0,0,0-.46,0l-1.151.6,0.22-1.28a0.506,0.506,0,0,0-.143-0.44l-0.931-.91,1.287-.18a0.525,0.525,0,0,0,.372-0.27l0.576-1.17,0.575,1.17a0.527,0.527,0,0,0,.373.27l1.287,0.18Zm18.129-11.47a15.5,15.5,0,0,0-22.618,21.17,0.491,0.491,0,0,0,.7.05,0.5,0.5,0,0,0,.045-0.7,14.508,14.508,0,0,1,7.29-23.61,14.512,14.512,0,0,1,0,28.1,14.447,14.447,0,0,1-5.939-3.14,0.491,0.491,0,0,0-.7.05,0.5,0.5,0,0,0,.046.7,15.5,15.5,0,0,0,6.417,3.37,0.355,0.355,0,0,0,.1.02,15.225,15.225,0,0,0,3.694.45A15.5,15.5,0,0,0,584.46,2833.54Zm-10.96,25.47a13.821,13.821,0,0,1-1.578-.09,15.574,15.574,0,0,0,6.477-4.8,15.5,15.5,0,0,0,0-19.24,15.58,15.58,0,0,0-6.477-4.8,13.717,13.717,0,0,1,1.578-.09A14.51,14.51,0,1,1,573.5,2859.01Z" transform="translate(-558 -2829)"/>
</svg>
