<svg xmlns="http://www.w3.org/2000/svg" width="30" height="30" viewBox="0 0 30 30">
  <metadata><?xpacket begin="﻿" id="W5M0MpCehiHzreSzNTczkc9d"?>
<x:xmpmeta xmlns:x="adobe:ns:meta/" x:xmptk="Adobe XMP Core 5.6-c138 79.159824, 2016/09/14-01:09:01        ">
   <rdf:RDF xmlns:rdf="http://www.w3.org/1999/02/22-rdf-syntax-ns#">
      <rdf:Description rdf:about=""/>
   </rdf:RDF>
</x:xmpmeta>
                                                                                                    
                                                                                                    
                                                                                                    
                                                                                                    
                                                                                                    
                                                                                                    
                                                                                                    
                                                                                                    
                                                                                                    
                                                                                                    
                                                                                                    
                                                                                                    
                                                                                                    
                                                                                                    
                                                                                                    
                                                                                                    
                                                                                                    
                                                                                                    
                                                                                                    
                                                                                                    
                           
<?xpacket end="w"?></metadata>
<defs>
    <style>
      .cls-1 {
        fill-rule: evenodd;
      }
    </style>
  </defs>
  <path id="Forma_1" data-name="Forma 1" class="cls-1" d="M886.679,2791.76c-1.117-2.11-5-4.4-5.167-4.5a2.74,2.74,0,0,0-2.071-.36,1.857,1.857,0,0,0-1.11.86,17.657,17.657,0,0,1-1.442,1.59,2.408,2.408,0,0,1-3.5-.35l-6.39-6.39a2.407,2.407,0,0,1-.352-3.5,19.7,19.7,0,0,1,1.6-1.44,1.854,1.854,0,0,0,.86-1.11,2.733,2.733,0,0,0-.363-2.07c-0.1-.17-2.387-4.05-4.5-5.16a2.72,2.72,0,0,0-3.224.48l-1.412,1.41a7.707,7.707,0,0,0-2.4,7.52c0.532,2.3,2.082,4.75,4.607,7.27l8.182,8.18c3.205,3.2,6.263,4.81,9.067,4.81a7.961,7.961,0,0,0,5.725-2.61l1.412-1.41A2.725,2.725,0,0,0,886.679,2791.76Zm-1.272,2.44L884,2795.61c-3.655,3.65-8.1,2.91-13.219-2.21l-8.182-8.18c-2.376-2.37-3.826-4.64-4.31-6.73a6.581,6.581,0,0,1,2.106-6.48l1.412-1.41a1.627,1.627,0,0,1,1.917-.29c1.832,0.97,4.037,4.7,4.056,4.73a1.728,1.728,0,0,1,.254,1.23,0.762,0.762,0,0,1-.38.46l-0.084.06a15.8,15.8,0,0,0-1.84,1.7,4.6,4.6,0,0,0-.685,1.48,7.885,7.885,0,0,1-.82-2.71,0.564,0.564,0,0,0-.611-0.5,0.557,0.557,0,0,0-.5.61,10.594,10.594,0,0,0,3.537,6.49l0.046,0.03,5.9,5.9a0.533,0.533,0,0,0,.076.07,0.758,0.758,0,0,0,.058.09,11.649,11.649,0,0,0,6.453,2.94h0.058a0.556,0.556,0,0,0,.057-1.11,9.76,9.76,0,0,1-3.087-.87,4.785,4.785,0,0,0,1.3-.64,15.362,15.362,0,0,0,1.7-1.84l0.058-.08a0.766,0.766,0,0,1,.465-0.38,1.692,1.692,0,0,1,1.217.25c0.038,0.02,3.771,2.23,4.74,4.06A1.627,1.627,0,0,1,885.407,2794.2Z" transform="translate(-857 -2769)"/>
</svg>
