<svg xmlns="http://www.w3.org/2000/svg" width="36" height="31" viewBox="0 0 36 31">
  <metadata><?xpacket begin="﻿" id="W5M0MpCehiHzreSzNTczkc9d"?>
<x:xmpmeta xmlns:x="adobe:ns:meta/" x:xmptk="Adobe XMP Core 5.6-c138 79.159824, 2016/09/14-01:09:01        ">
   <rdf:RDF xmlns:rdf="http://www.w3.org/1999/02/22-rdf-syntax-ns#">
      <rdf:Description rdf:about=""/>
   </rdf:RDF>
</x:xmpmeta>
                                                                                                    
                                                                                                    
                                                                                                    
                                                                                                    
                                                                                                    
                                                                                                    
                                                                                                    
                                                                                                    
                                                                                                    
                                                                                                    
                                                                                                    
                                                                                                    
                                                                                                    
                                                                                                    
                                                                                                    
                                                                                                    
                                                                                                    
                                                                                                    
                                                                                                    
                                                                                                    
                           
<?xpacket end="w"?></metadata>
<defs>
    <style>
      .cls-1 {
        fill-rule: evenodd;
      }
    </style>
  </defs>
  <path class="cls-1" d="M570.238,2794.23a1.2,1.2,0,1,0,1.2,1.19A1.2,1.2,0,0,0,570.238,2794.23Zm15.574,0a1.2,1.2,0,1,0,1.2,1.19A1.2,1.2,0,0,0,585.812,2794.23Zm-1.8-4.17h-1.2a0.6,0.6,0,1,0,0,1.19h1.2A0.6,0.6,0,1,0,584.015,2790.06Zm-8.985-5.96h-8.386a0.558,0.558,0,0,0-.6.59,0.566,0.566,0,0,0,.6.6h8.386a0.567,0.567,0,0,0,.6-0.6A0.559,0.559,0,0,0,575.03,2784.1Zm-11.381-5.97a3.575,3.575,0,1,0-3.594-3.57A3.595,3.595,0,0,0,563.649,2778.13Zm0-5.96a2.385,2.385,0,1,1-2.4,2.39A2.4,2.4,0,0,1,563.649,2772.17Zm28.572,16.7-2.313-.95c-0.01-.01-0.02-0.03-0.032-0.04l-1.488-5.93a1.739,1.739,0,0,0-1.738-1.37h-5.63v-1.79a1.194,1.194,0,0,0-1.2-1.19h-10.46a6.854,6.854,0,0,0,.876-3.34,6.42,6.42,0,0,0-6.589-6.26,6.512,6.512,0,0,0-6.649,6.26,7.7,7.7,0,0,0,1.258,4.05,6.55,6.55,0,0,1,.359.66c1.64,3.15,4.028,7,4.433,7.7v8.16a1.2,1.2,0,0,0,1.2,1.19H566.7a3.6,3.6,0,0,0,7.086,0h8.488a3.6,3.6,0,0,0,7.086,0H591.8a1.2,1.2,0,0,0,1.2-1.19V2790A1.152,1.152,0,0,0,592.221,2788.87Zm-12.4-7.75v0.59a5.36,5.36,0,0,1-5.391,5.37H564.248v-0.42c0.343-.56,1.641-2.67,2.922-4.95h9.058a0.6,0.6,0,1,0,0-1.19h-8.4c0.276-.51.543-1.01,0.79-1.49l0.1-.24c0.011-.02.021-0.04,0.031-0.06h11.073v2.39Zm-20.426-3.34a7.024,7.024,0,0,1-1.138-3.52,5.4,5.4,0,0,1,10.782,0,7.182,7.182,0,0,1-1.138,3.52,6.318,6.318,0,0,0-.36.65c-1.116,2.17-2.657,4.76-3.576,6.32-0.116.19-.224,0.37-0.321,0.53-0.84-1.43-2.634-4.35-3.89-6.85C559.636,2778.19,559.516,2778.02,559.4,2777.78Zm10.842,20.03a2.385,2.385,0,1,1,2.4-2.39A2.4,2.4,0,0,1,570.238,2797.81Zm15.574,0a2.385,2.385,0,1,1,2.4-2.39A2.4,2.4,0,0,1,585.812,2797.81Zm5.99-2.98h-2.447a3.62,3.62,0,0,0-2.067-2.67l-0.072-.03a0.09,0.09,0,0,1-.045-0.02c-0.039-.01-0.078-0.03-0.117-0.04a0.043,0.043,0,0,0-.033-0.01c-0.043-.02-0.088-0.03-0.132-0.05a0.037,0.037,0,0,1-.03-0.01,0.73,0.73,0,0,1-.137-0.04h-0.031a0.7,0.7,0,0,0-.138-0.04h-0.035l-0.135-.03h-0.04a0.585,0.585,0,0,0-.132-0.02,0.073,0.073,0,0,1-.044-0.01,0.61,0.61,0,0,1-.134-0.01H585.59a0.6,0.6,0,0,1-.133.01,0.074,0.074,0,0,1-.045.01,0.6,0.6,0,0,0-.132.02h-0.04l-0.135.03H585.07a0.689,0.689,0,0,0-.137.04H584.9a0.739,0.739,0,0,1-.138.04,0.035,0.035,0,0,1-.029.01c-0.045.02-.089,0.03-0.133,0.05a0.041,0.041,0,0,0-.032.01c-0.04.01-.079,0.03-0.118,0.04a0.09,0.09,0,0,1-.045.02l-0.071.03a3.616,3.616,0,0,0-2.067,2.67h-8.488a3.618,3.618,0,0,0-2.067-2.67l-0.071-.03a0.093,0.093,0,0,1-.046-0.02c-0.039-.01-0.078-0.03-0.117-0.04a0.042,0.042,0,0,0-.032-0.01c-0.044-.02-0.089-0.03-0.133-0.05a0.034,0.034,0,0,1-.029-0.01,0.718,0.718,0,0,1-.138-0.04h-0.031a0.679,0.679,0,0,0-.138-0.04h-0.034l-0.135-.03h-0.041a0.585,0.585,0,0,0-.131-0.02,0.074,0.074,0,0,1-.045-0.01,0.6,0.6,0,0,1-.133-0.01h-0.444a0.6,0.6,0,0,1-.133.01,0.074,0.074,0,0,1-.045.01,0.6,0.6,0,0,0-.132.02h-0.04l-0.135.03H569.5a0.689,0.689,0,0,0-.137.04h-0.031a0.718,0.718,0,0,1-.138.04,0.034,0.034,0,0,1-.029.01c-0.045.02-.089,0.03-0.133,0.05a0.041,0.041,0,0,0-.032.01c-0.039.01-.079,0.03-0.117,0.04a0.093,0.093,0,0,1-.046.02l-0.071.03a3.616,3.616,0,0,0-2.067,2.67h-2.447v-6.56h10.183a6.542,6.542,0,0,0,6.589-6.5v-0.06h5.63a0.644,0.644,0,0,1,.6.48l1.365,5.48H584.2a0.785,0.785,0,0,1-.779-0.77v-2.8a0.6,0.6,0,1,0-1.2,0v2.8a1.994,1.994,0,0,0,1.977,1.97h4.971l2.636,1.01v4.95h0Z" transform="translate(-557 -2768)"/>
</svg>
