<svg xmlns="http://www.w3.org/2000/svg" width="15" height="10" viewBox="0 0 15 10">
  <metadata><?xpacket begin="﻿" id="W5M0MpCehiHzreSzNTczkc9d"?>
<x:xmpmeta xmlns:x="adobe:ns:meta/" x:xmptk="Adobe XMP Core 5.6-c138 79.159824, 2016/09/14-01:09:01        ">
   <rdf:RDF xmlns:rdf="http://www.w3.org/1999/02/22-rdf-syntax-ns#">
      <rdf:Description rdf:about=""/>
   </rdf:RDF>
</x:xmpmeta>
                                                                                                    
                                                                                                    
                                                                                                    
                                                                                                    
                                                                                                    
                                                                                                    
                                                                                                    
                                                                                                    
                                                                                                    
                                                                                                    
                                                                                                    
                                                                                                    
                                                                                                    
                                                                                                    
                                                                                                    
                                                                                                    
                                                                                                    
                                                                                                    
                                                                                                    
                                                                                                    
                           
<?xpacket end="w"?></metadata>
<defs>
    <style>
      .cls-1 {
        fill: #fff;
        fill-rule: evenodd;
      }
    </style>
  </defs>
  <path id="Forma_1_copy" data-name="Forma 1 copy" class="cls-1" d="M1169.71,292.363a3.183,3.183,0,1,1,3.28-3.181l0.01,0.454a6.466,6.466,0,0,1-6.56,6.364v-1.818a4.755,4.755,0,0,0,3.32-1.332,4.559,4.559,0,0,0,.46-0.526A3.369,3.369,0,0,1,1169.71,292.363Zm-8.43,0a3.183,3.183,0,1,1,3.28-3.181l0.01,0.454a6.46,6.46,0,0,1-6.56,6.364v-1.818a4.737,4.737,0,0,0,3.32-1.332,4.559,4.559,0,0,0,.46-0.526A3.369,3.369,0,0,1,1161.28,292.363Z" transform="translate(-1158 -286)"/>
</svg>
