<svg xmlns="http://www.w3.org/2000/svg" width="15" height="10" viewBox="0 0 15 10">
  <metadata><?xpacket begin="﻿" id="W5M0MpCehiHzreSzNTczkc9d"?>
<x:xmpmeta xmlns:x="adobe:ns:meta/" x:xmptk="Adobe XMP Core 5.6-c138 79.159824, 2016/09/14-01:09:01        ">
   <rdf:RDF xmlns:rdf="http://www.w3.org/1999/02/22-rdf-syntax-ns#">
      <rdf:Description rdf:about=""/>
   </rdf:RDF>
</x:xmpmeta>
                                                                                                    
                                                                                                    
                                                                                                    
                                                                                                    
                                                                                                    
                                                                                                    
                                                                                                    
                                                                                                    
                                                                                                    
                                                                                                    
                                                                                                    
                                                                                                    
                                                                                                    
                                                                                                    
                                                                                                    
                                                                                                    
                                                                                                    
                                                                                                    
                                                                                                    
                                                                                                    
                           
<?xpacket end="w"?></metadata>
<defs>
    <style>
      .cls-1 {
        fill: #fff;
        fill-rule: evenodd;
      }
    </style>
  </defs>
  <path id="Forma_1" data-name="Forma 1" class="cls-1" d="M811.293,189.636a3.183,3.183,0,1,1-3.278,3.182L808,192.364A6.462,6.462,0,0,1,814.556,186v1.818a4.725,4.725,0,0,0-3.311,1.331,4.6,4.6,0,0,0-.466.526A3.473,3.473,0,0,1,811.293,189.636Zm8.429,0a3.183,3.183,0,1,1-3.278,3.182l-0.015-.454A6.462,6.462,0,0,1,822.985,186v1.818a4.706,4.706,0,0,0-3.777,1.857A3.484,3.484,0,0,1,819.722,189.636Z" transform="translate(-808 -186)"/>
</svg>
