<svg xmlns="http://www.w3.org/2000/svg" width="30" height="30" viewBox="0 0 30 30">
  <metadata><?xpacket begin="﻿" id="W5M0MpCehiHzreSzNTczkc9d"?>
<x:xmpmeta xmlns:x="adobe:ns:meta/" x:xmptk="Adobe XMP Core 5.6-c138 79.159824, 2016/09/14-01:09:01        ">
   <rdf:RDF xmlns:rdf="http://www.w3.org/1999/02/22-rdf-syntax-ns#">
      <rdf:Description rdf:about=""/>
   </rdf:RDF>
</x:xmpmeta>
                                                                                                    
                                                                                                    
                                                                                                    
                                                                                                    
                                                                                                    
                                                                                                    
                                                                                                    
                                                                                                    
                                                                                                    
                                                                                                    
                                                                                                    
                                                                                                    
                                                                                                    
                                                                                                    
                                                                                                    
                                                                                                    
                                                                                                    
                                                                                                    
                                                                                                    
                                                                                                    
                           
<?xpacket end="w"?></metadata>
<defs>
    <style>
      .cls-1 {
        fill: #fff;
        fill-rule: evenodd;
      }
    </style>
  </defs>
  <path id="твитер" class="cls-1" d="M1135.4,3080h-26.8a1.592,1.592,0,0,0-1.6,1.6v26.8a1.592,1.592,0,0,0,1.6,1.6h26.8a1.592,1.592,0,0,0,1.6-1.6v-26.8A1.592,1.592,0,0,0,1135.4,3080Zm-0.99,7.44a10.3,10.3,0,0,1-2.5,2.6c0.01,0.2.01,0.4,0.01,0.59a14.476,14.476,0,0,1-22.29,12.2,0.115,0.115,0,0,1-.05-0.14,0.111,0.111,0,0,1,.13-0.08,11.7,11.7,0,0,0,1.19.07,9.987,9.987,0,0,0,5.93-1.93,5.183,5.183,0,0,1-4.49-3.58,0.106,0.106,0,0,1,.02-0.12,0.159,0.159,0,0,1,.12-0.04,4.97,4.97,0,0,0,1.72.03,5.2,5.2,0,0,1-3.64-4.94v-0.07a0.133,0.133,0,0,1,.06-0.1,0.091,0.091,0,0,1,.12,0,5.259,5.259,0,0,0,1.81.58,5.18,5.18,0,0,1-1.25-6.65,0.133,0.133,0,0,1,.1-0.06,0.123,0.123,0,0,1,.1.05,14.311,14.311,0,0,0,10.16,5.22,4.97,4.97,0,0,1-.1-1.02,5.177,5.177,0,0,1,8.9-3.59,9.842,9.842,0,0,0,3.1-1.2,0.139,0.139,0,0,1,.14.01,0.128,0.128,0,0,1,.04.14,5.079,5.079,0,0,1-1.82,2.55,10.284,10.284,0,0,0,2.33-.7,0.124,0.124,0,0,1,.15.03A0.136,0.136,0,0,1,1134.41,3087.44Z" transform="translate(-1107 -3080)"/>
</svg>
