<svg xmlns="http://www.w3.org/2000/svg" width="31" height="31" viewBox="0 0 31 31">
  <metadata><?xpacket begin="﻿" id="W5M0MpCehiHzreSzNTczkc9d"?>
<x:xmpmeta xmlns:x="adobe:ns:meta/" x:xmptk="Adobe XMP Core 5.6-c138 79.159824, 2016/09/14-01:09:01        ">
   <rdf:RDF xmlns:rdf="http://www.w3.org/1999/02/22-rdf-syntax-ns#">
      <rdf:Description rdf:about=""/>
   </rdf:RDF>
</x:xmpmeta>
                                                                                                    
                                                                                                    
                                                                                                    
                                                                                                    
                                                                                                    
                                                                                                    
                                                                                                    
                                                                                                    
                                                                                                    
                                                                                                    
                                                                                                    
                                                                                                    
                                                                                                    
                                                                                                    
                                                                                                    
                                                                                                    
                                                                                                    
                                                                                                    
                                                                                                    
                                                                                                    
                           
<?xpacket end="w"?></metadata>
<defs>
    <style>
      .cls-1 {
        fill: #fff;
        fill-rule: evenodd;
      }
    </style>
  </defs>
  <path id="однокласкники" class="cls-1" d="M1071.52,3092.4a3.125,3.125,0,1,0-3.15-3.1A3.1,3.1,0,0,0,1071.52,3092.4Zm13.83-12.4h-27.7a1.652,1.652,0,0,0-1.65,1.65v27.7a1.652,1.652,0,0,0,1.65,1.65h27.7a1.652,1.652,0,0,0,1.65-1.65v-27.7A1.652,1.652,0,0,0,1085.35,3080Zm-13.82,2.89a6.38,6.38,0,1,1-6.41,6.37A6.39,6.39,0,0,1,1071.53,3082.89Zm7.14,15.27a7.784,7.784,0,0,1-2.76,1.79,13.245,13.245,0,0,1-3.14.7c0.17,0.18.24,0.26,0.34,0.36,1.45,1.46,2.91,2.92,4.36,4.38a1.455,1.455,0,0,1,.33,1.7,1.727,1.727,0,0,1-1.62,1,1.581,1.581,0,0,1-1.02-.52c-1.1-1.1-2.21-2.18-3.29-3.31-0.31-.32-0.46-0.26-0.73.02-1.11,1.14-2.23,2.25-3.35,3.37a1.431,1.431,0,0,1-1.7.3,1.721,1.721,0,0,1-.99-1.58,1.619,1.619,0,0,1,.53-1.06l4.31-4.31c0.09-.1.18-0.2,0.32-0.35a9.762,9.762,0,0,1-5.23-1.86c-0.19-.15-0.38-0.29-0.55-0.45a1.568,1.568,0,0,1,1.77-2.56,2.822,2.822,0,0,1,.44.26,8.573,8.573,0,0,0,9.5.08,2.366,2.366,0,0,1,.92-0.47,1.432,1.432,0,0,1,1.66.66A1.4,1.4,0,0,1,1078.67,3098.16Z" transform="translate(-1056 -3080)"/>
</svg>
