<svg xmlns="http://www.w3.org/2000/svg" width="30" height="30" viewBox="0 0 30 30">
  <metadata><?xpacket begin="﻿" id="W5M0MpCehiHzreSzNTczkc9d"?>
<x:xmpmeta xmlns:x="adobe:ns:meta/" x:xmptk="Adobe XMP Core 5.6-c138 79.159824, 2016/09/14-01:09:01        ">
   <rdf:RDF xmlns:rdf="http://www.w3.org/1999/02/22-rdf-syntax-ns#">
      <rdf:Description rdf:about=""/>
   </rdf:RDF>
</x:xmpmeta>
                                                                                                    
                                                                                                    
                                                                                                    
                                                                                                    
                                                                                                    
                                                                                                    
                                                                                                    
                                                                                                    
                                                                                                    
                                                                                                    
                                                                                                    
                                                                                                    
                                                                                                    
                                                                                                    
                                                                                                    
                                                                                                    
                                                                                                    
                                                                                                    
                                                                                                    
                                                                                                    
                           
<?xpacket end="w"?></metadata>
<defs>
    <style>
      .cls-1 {
        fill: #fff;
        fill-rule: evenodd;
      }
    </style>
  </defs>
  <path id="вк" class="cls-1" d="M1185.4,3080h-26.8a1.592,1.592,0,0,0-1.6,1.6v26.8a1.592,1.592,0,0,0,1.6,1.6h26.8a1.592,1.592,0,0,0,1.6-1.6v-26.8A1.592,1.592,0,0,0,1185.4,3080Zm-4.51,16.9a30.826,30.826,0,0,1,2.42,2.43,7.093,7.093,0,0,1,.87,1.24,0.9,0.9,0,0,1-.55,1.4l-3.59-.01a2.745,2.745,0,0,1-2.29-.93c-0.5-.5-0.96-1.04-1.44-1.56a3.2,3.2,0,0,0-.64-0.58,0.754,0.754,0,0,0-1.2.29,3.756,3.756,0,0,0-.38,1.68,0.948,0.948,0,0,1-1.14,1.1,9.187,9.187,0,0,1-5.14-1.1,11.278,11.278,0,0,1-3.46-3.24,43.767,43.767,0,0,1-4.56-8.12c-0.29-.64-0.08-0.98.63-0.99,1.17-.03,2.35-0.02,3.52,0a1.02,1.02,0,0,1,.97.73,21.608,21.608,0,0,0,2.39,4.41,3.552,3.552,0,0,0,.9.99,0.544,0.544,0,0,0,.93-0.27,2.918,2.918,0,0,0,.2-0.93,13.512,13.512,0,0,0-.05-3.24,1.343,1.343,0,0,0-1.16-1.24c-0.34-.07-0.29-0.19-0.12-0.39a1.288,1.288,0,0,1,1.1-.55h4.06a0.971,0.971,0,0,1,.87,1.06v4.51a1.328,1.328,0,0,0,.58,1.15,0.794,0.794,0,0,0,.81-0.4,14.022,14.022,0,0,0,2.28-3.51c0.28-.56.52-1.13,0.75-1.71a0.86,0.86,0,0,1,.91-0.63l3.91,0.01a2.055,2.055,0,0,1,.35.02,0.668,0.668,0,0,1,.63,1.03,9.675,9.675,0,0,1-1.55,2.7c-0.65.9-1.35,1.77-2,2.68A1.234,1.234,0,0,0,1180.89,3096.9Z" transform="translate(-1157 -3080)"/>
</svg>
